<svg width="40" height="36" viewBox="0 0 40 36" fill="none" xmlns="http://www.w3.org/2000/svg">
<path d="M10.4715 5.47158C10.4743 6.37411 10.2091 7.25716 9.70943 8.00877C9.20977 8.76037 8.49821 9.34667 7.66492 9.69336C6.83163 10.04 5.91414 10.1315 5.02882 9.95611C4.14349 9.78073 3.33014 9.34642 2.69195 8.70823C2.05377 8.07004 1.61952 7.25674 1.44413 6.37141C1.26875 5.48608 1.36016 4.56862 1.70685 3.73533C2.05353 2.90204 2.6399 2.19044 3.3915 1.69078C4.14311 1.19112 5.02612 0.925908 5.92865 0.928733C7.13349 0.928733 8.28898 1.40735 9.14093 2.2593C9.99288 3.11125 10.4715 4.26674 10.4715 5.47158Z" fill="#00A9FF"/>
<path d="M24.3714 5.47156C24.3714 6.37005 24.1051 7.24836 23.6059 7.99543C23.1067 8.7425 22.3971 9.32478 21.567 9.66862C20.7369 10.0125 19.8236 10.1024 18.9424 9.92712C18.0611 9.75184 17.2516 9.31917 16.6163 8.68384C15.981 8.04851 15.5483 7.23906 15.373 6.35783C15.1977 5.4766 15.2877 4.56318 15.6315 3.73308C15.9754 2.90298 16.5576 2.19349 17.3047 1.69431C18.0518 1.19513 18.9301 0.928711 19.8286 0.928711C21.0334 0.928711 22.1889 1.40733 23.0409 2.25928C23.8928 3.11123 24.3714 4.26672 24.3714 5.47156Z" fill="#00A9FF"/>
<path d="M38.4714 5.47156C38.4714 6.37005 38.2051 7.24836 37.7059 7.99543C37.2067 8.7425 36.4972 9.32478 35.6671 9.66862C34.837 10.0125 33.9236 10.1024 33.0424 9.92712C32.1611 9.75184 31.3516 9.31917 30.7163 8.68384C30.081 8.04851 29.6483 7.23906 29.473 6.35783C29.2977 5.4766 29.3877 4.56318 29.7315 3.73308C30.0754 2.90298 30.6576 2.19349 31.4047 1.69431C32.1518 1.19513 33.0301 0.928711 33.9286 0.928711C35.1334 0.928711 36.2889 1.40733 37.1409 2.25928C37.9928 3.11123 38.4714 4.26672 38.4714 5.47156Z" fill="#00A9FF"/>
<path d="M9.04293 31.5428C9.04292 32.1424 8.86496 32.7285 8.53154 33.2268C8.19812 33.7252 7.72425 34.1133 7.17002 34.3421C6.61579 34.5709 6.00609 34.6301 5.41822 34.5121C4.83035 34.394 4.29073 34.1042 3.86775 33.6792C3.44478 33.2542 3.15745 32.7132 3.04221 32.1248C2.92697 31.5364 2.98902 30.927 3.22043 30.3738C3.45185 29.8207 3.84225 29.3487 4.34217 29.0176C4.84209 28.6866 5.42907 28.5114 6.02866 28.5142C6.42571 28.5142 6.81881 28.5926 7.18545 28.745C7.5521 28.8974 7.88506 29.1207 8.16515 29.4021C8.44524 29.6835 8.66698 30.0175 8.81762 30.3849C8.96826 30.7522 9.04481 31.1457 9.04293 31.5428Z" fill="#00A9FF"/>
<path d="M22.8571 31.5427C22.8571 32.1417 22.6796 32.7273 22.3468 33.2253C22.014 33.7234 21.5409 34.1115 20.9875 34.3408C20.4341 34.57 19.8252 34.63 19.2377 34.5131C18.6502 34.3963 18.1106 34.1078 17.687 33.6843C17.2634 33.2607 16.9751 32.7211 16.8582 32.1336C16.7414 31.5461 16.8013 30.9372 17.0305 30.3838C17.2597 29.8304 17.6479 29.3574 18.146 29.0246C18.644 28.6918 19.2296 28.5142 19.8285 28.5142C20.6318 28.5142 21.4021 28.8332 21.9701 29.4012C22.5381 29.9692 22.8571 30.7395 22.8571 31.5427Z" fill="#00A9FF"/>
<path d="M36.9571 31.5427C36.9571 32.1417 36.7795 32.7273 36.4468 33.2253C36.114 33.7234 35.6409 34.1115 35.0875 34.3408C34.5341 34.57 33.9252 34.63 33.3377 34.5131C32.7502 34.3963 32.2106 34.1078 31.7871 33.6843C31.3635 33.2607 31.0751 32.7211 30.9582 32.1336C30.8414 31.5461 30.9013 30.9372 31.1305 30.3838C31.3597 29.8304 31.7479 29.3574 32.246 29.0246C32.744 28.6918 33.3295 28.5142 33.9285 28.5142C34.7318 28.5142 35.5021 28.8332 36.0701 29.4012C36.638 29.9692 36.9571 30.7395 36.9571 31.5427Z" fill="#00A9FF"/>
<path d="M34.6144 15.3144C33.8198 15.1732 33.001 15.2846 32.2732 15.6332C31.5454 15.9817 30.9452 16.5497 30.5572 17.2573C30.3945 17.5685 30.1505 17.8298 29.8512 18.0135C29.5518 18.1971 29.2083 18.2962 28.8572 18.3001H24.8858C24.5367 18.2951 24.1955 18.1955 23.8987 18.0118C23.6018 17.8282 23.3603 17.5674 23.2 17.2573C22.8691 16.6523 22.3814 16.1475 21.7882 15.7958C21.1951 15.4442 20.5182 15.2586 19.8286 15.2586C19.139 15.2586 18.4621 15.4442 17.8689 15.7958C17.2757 16.1475 16.7881 16.6523 16.4572 17.2573C16.2969 17.5674 16.0555 17.8282 15.7586 18.0118C15.4617 18.1955 15.1205 18.2951 14.7715 18.3001H11.0429C10.6939 18.2951 10.3527 18.1955 10.0558 18.0118C9.75893 17.8282 9.51742 17.5674 9.35713 17.2573C8.95788 16.523 8.33099 15.9383 7.57072 15.5911C6.81044 15.244 5.95795 15.1532 5.14161 15.3324C4.32526 15.5116 3.58916 15.9511 3.04418 16.5847C2.49919 17.2184 2.17477 18.0119 2.11975 18.8459C2.06474 19.6799 2.28216 20.5092 2.73917 21.2089C3.19619 21.9087 3.86811 22.4411 4.65385 22.726C5.43958 23.0109 6.29657 23.0328 7.09586 22.7886C7.89516 22.5443 8.59353 22.047 9.08578 21.3716C9.30175 21.0487 9.59241 20.7827 9.93313 20.5962C10.2738 20.4097 10.6546 20.3081 11.0429 20.3001H14.7572C15.1453 20.3093 15.5256 20.4114 15.8661 20.5978C16.2066 20.7842 16.4975 21.0495 16.7143 21.3716C17.0693 21.8614 17.5353 22.2601 18.0742 22.5351C18.613 22.81 19.2093 22.9534 19.8143 22.9534C20.4192 22.9534 21.0155 22.81 21.5544 22.5351C22.0932 22.2601 22.5593 21.8614 22.9143 21.3716C23.1312 21.0495 23.422 20.7842 23.7626 20.5978C24.1031 20.4114 24.4834 20.3093 24.8715 20.3001H28.8572C29.2455 20.3081 29.6262 20.4097 29.967 20.5962C30.3077 20.7827 30.5983 21.0487 30.8143 21.3716C31.1859 21.8769 31.6755 22.2835 32.2404 22.556C32.8053 22.8285 33.4284 22.9586 34.0552 22.935C34.6819 22.9113 35.2933 22.7346 35.8361 22.4202C36.3789 22.1059 36.8364 21.6634 37.1688 21.1315C37.5013 20.5997 37.6985 19.9945 37.7432 19.3689C37.7879 18.7433 37.6788 18.1162 37.4255 17.5425C37.1721 16.9687 36.7822 16.4657 36.2897 16.0773C35.7972 15.6889 35.2171 15.427 34.6 15.3144" fill="#00A9FF"/>
</svg>
