<svg width="18" height="18" viewBox="0 0 18 18" fill="none" xmlns="http://www.w3.org/2000/svg">
<path d="M15 10.0632V8.06875C14.998 6.52537 14.4203 5.03824 13.3801 3.89811C12.3398 2.75797 10.9117 2.04682 9.375 1.90369V0.625C9.375 0.45924 9.30915 0.300269 9.19194 0.183058C9.07473 0.065848 8.91576 0 8.75 0C8.58424 0 8.42527 0.065848 8.30806 0.183058C8.19085 0.300269 8.125 0.45924 8.125 0.625V1.90381C6.58829 2.04695 5.16021 2.75808 4.11996 3.89819C3.07971 5.03829 2.50208 6.52539 2.5 8.06875V10.0631C1.79469 10.208 1.16092 10.5917 0.705528 11.1495C0.250133 11.7072 0.000956463 12.4049 0 13.125C0.000545924 13.6221 0.198265 14.0987 0.549778 14.4502C0.90129 14.8017 1.37789 14.9995 1.875 15H5.68819C5.83229 15.7057 6.21575 16.3399 6.77367 16.7955C7.3316 17.251 8.02974 17.4998 8.75 17.4998C9.47026 17.4998 10.1684 17.251 10.7263 16.7955C11.2843 16.3399 11.6677 15.7057 11.8118 15H15.625C16.1221 14.9995 16.5987 14.8017 16.9502 14.4502C17.3017 14.0987 17.4995 13.6221 17.5 13.125C17.499 12.405 17.2498 11.7073 16.7944 11.1496C16.339 10.5918 15.7053 10.2081 15 10.0632ZM3.75 8.06875C3.75165 6.75809 4.27304 5.50159 5.19982 4.57482C6.12659 3.64804 7.38309 3.12665 8.69375 3.125H8.80625C10.1169 3.12665 11.3734 3.64804 12.3002 4.57482C13.227 5.50159 13.7483 6.75809 13.75 8.06875V10H3.75V8.06875ZM8.75 16.25C8.36351 16.2488 7.98686 16.128 7.67177 15.9042C7.35668 15.6804 7.11859 15.3645 6.99019 15H10.5098C10.3814 15.3645 10.1433 15.6804 9.82823 15.9042C9.51314 16.128 9.13649 16.2488 8.75 16.25ZM15.625 13.75H1.875C1.70927 13.7499 1.55036 13.684 1.43317 13.5668C1.31598 13.4496 1.2501 13.2907 1.25 13.125C1.25055 12.6279 1.44827 12.1513 1.79978 11.7998C2.15129 11.4483 2.62789 11.2505 3.125 11.25H14.375C14.8721 11.2505 15.3487 11.4483 15.7002 11.7998C16.0517 12.1513 16.2495 12.6279 16.25 13.125C16.2499 13.2907 16.184 13.4496 16.0668 13.5668C15.9496 13.684 15.7907 13.7499 15.625 13.75Z" fill="black"/>
</svg>
