<svg width="20" height="21" viewBox="0 0 20 21" fill="none" xmlns="http://www.w3.org/2000/svg">
<path d="M10 4.12848C10.6108 3.43646 11.5044 3 12.5 3C14.341 3 15.8333 4.49238 15.8333 6.33333C15.8333 8.17428 14.341 9.66667 12.5 9.66667C11.5044 9.66667 10.6108 9.2302 10 8.53819M12.5 18H2.5V17.1667C2.5 14.4052 4.73858 12.1667 7.5 12.1667C10.2614 12.1667 12.5 14.4052 12.5 17.1667V18ZM12.5 18H17.5V17.1667C17.5 14.4052 15.2614 12.1667 12.5 12.1667C11.5893 12.1667 10.7354 12.4102 10 12.8356M10.8333 6.33333C10.8333 8.17428 9.34095 9.66667 7.5 9.66667C5.65905 9.66667 4.16667 8.17428 4.16667 6.33333C4.16667 4.49238 5.65905 3 7.5 3C9.34095 3 10.8333 4.49238 10.8333 6.33333Z" stroke="#575757" stroke-width="2" stroke-linecap="round" stroke-linejoin="round"/>
</svg>
