<svg width="24" height="24" viewBox="0 0 24 24" fill="none" xmlns="http://www.w3.org/2000/svg">
<path d="M10.8 2.40002C10.1373 2.40002 9.60005 2.93728 9.60005 3.60002C9.60005 4.26277 10.1373 4.80002 10.8 4.80002H13.2C13.8628 4.80002 14.4 4.26277 14.4 3.60002C14.4 2.93728 13.8628 2.40002 13.2 2.40002H10.8Z" fill="#00A9FF"/>
<path fill-rule="evenodd" clip-rule="evenodd" d="M4.80005 6.00002C4.80005 4.67454 5.87457 3.60002 7.20005 3.60002C7.20005 5.58825 8.81182 7.20002 10.8 7.20002H13.2C15.1883 7.20002 16.8 5.58825 16.8 3.60002C18.1255 3.60002 19.2 4.67454 19.2 6.00002V19.2C19.2 20.5255 18.1255 21.6 16.8 21.6H7.20005C5.87457 21.6 4.80005 20.5255 4.80005 19.2V6.00002ZM16.4486 12.8486C16.9172 12.3799 16.9172 11.6201 16.4486 11.1515C15.9799 10.6829 15.2201 10.6829 14.7515 11.1515L10.8 15.103L9.24858 13.5515C8.77995 13.0829 8.02015 13.0829 7.55152 13.5515C7.08289 14.0201 7.08289 14.7799 7.55152 15.2486L9.95152 17.6486C10.4201 18.1172 11.1799 18.1172 11.6486 17.6486L16.4486 12.8486Z" fill="#00A9FF"/>
</svg>
